<svg id="Capa_1" enable-background="new 0 0 512 512" height="512" viewBox="0 0 512 512" width="512" xmlns="http://www.w3.org/2000/svg"><path d="m69.59 274.85c20.817-24.838 51.175-38.3 82.08-38.3 49.104 0 68.475 30.9 88.3 29.25 24.058-120.288 21.03-101.441 21.03-114.8 0-57.9-47.1-105-105-105s-105 47.1-105 105c0 13.197-2.823-7.978 18.59 123.85zm86.41-198.85c39.05 0 71.21 30 74.67 68.16h-149.34c3.46-38.16 35.62-68.16 74.67-68.16z"/><path d="m396.58 260.98 48.88 43.08 10.61-47.09c6.67-29.58-11.98-59.07-41.56-65.74l-19.51-4.4 33.2-147.3 14.63 3.29c8.074 1.819 16.109-3.244 17.93-11.33 1.82-8.08-3.25-16.11-11.34-17.93l-58.53-13.19c-8.08-1.82-16.11 3.25-17.93 11.33s3.25 16.11 11.34 17.93l14.63 3.3-33.2 147.31-19.51-4.4c-29.613-6.675-59.042 11.845-65.74 41.56l-6.84 30.33c39.551-22.028 88.916-16.723 122.94 13.25z"/><path d="m376.74 283.49c-26.18-23.08-64.75-25.68-93.8-6.32l-13.96 9.31c-17.63 11.75-40.02 12.53-58.42 2.01l-20.61-11.77c-33.262-19.016-75.303-10.674-98.88 19.25l-51.2 65.03h424.81z"/><path d="m0 391v106c0 8.28 6.72 15 15 15h482c8.28 0 15-6.72 15-15v-106z"/></svg>